<?xml version="1.0" standalone="no"?><!DOCTYPE svg PUBLIC "-//W3C//DTD SVG 1.1//EN" "http://www.w3.org/Graphics/SVG/1.1/DTD/svg11.dtd"><svg t="1653183053625" class="icon" viewBox="0 0 1024 1024" version="1.1" xmlns="http://www.w3.org/2000/svg" p-id="7114" xmlns:xlink="http://www.w3.org/1999/xlink" width="64" height="64"><defs><style type="text/css"></style></defs><path d="M0 0m102.4 0l819.2 0q102.4 0 102.4 102.4l0 819.2q0 102.4-102.4 102.4l-819.2 0q-102.4 0-102.4-102.4l0-819.2q0-102.4 102.4-102.4Z" fill="#D85C62" p-id="7115"></path><path d="M327.68 368.64h327.68v317.44H327.68z" fill="#F9B3B7" p-id="7116"></path><path d="M554.5 469.76l42.84-42.84-33.9-33.96-61.86 61.86-61.86-61.86-33.96 33.96 42.84 42.84h-62.04v48h91.2v43.2h-91.2v48h91.2v52.8h48v-52.8h91.2v-48h-91.2v-43.2h91.2v-48H554.5z m254.46 134.4v153.6h-614.4v-153.6c42.42 0 76.8-34.38 76.8-76.8 0-42.42-34.38-76.8-76.8-76.8v-153.6h614.4v153.6c-42.42 0-76.8 34.38-76.8 76.8 0 42.42 34.38 76.8 76.8 76.8z" fill="#FFFFFF" p-id="7117"></path></svg>